# xmcd
#
# Track frame offsets: 
#        150
#        14910
#        32713
#        65070
#        83961
#        96962
#        114571
#        132028
#        157742
#        175757
#        192224
#
# Disc length: 2976 seconds
#
# Revision: 3
# Processed by: cddbd v1.5.2PL0 Copyright (c) Steve Scherf et al.
# Submitted via: ExactAudioCopyFreeDBPlugin 1.0
#
DISCID=8e0b9e0b
DTITLE=Roy Ayers Ubiquity - Lifeline
DYEAR=1977
DGENRE=Soul
TTITLE0=This Side Of Sunshine
TTITLE1=Running Away
TTITLE2=Gotta Find A Lover
TTITLE3=I Still Love You
TTITLE4=Lifeline
TTITLE5=Cincinnati Growl
TTITLE6=Fruit
TTITLE7=Sanctified Feeling
TTITLE8=Stranded In The Jungle
TTITLE9=Together
TTITLE10=Running Away (12-inch Long Version)
EXTD=Sean P.
EXTT0=
EXTT1=
EXTT2=
EXTT3=
EXTT4=
EXTT5=
EXTT6=
EXTT7=
EXTT8=
EXTT9=
EXTT10=
PLAYORDER=
